<svg xmlns="http://www.w3.org/2000/svg" version="1.1" xmlns:xlink="http://www.w3.org/1999/xlink" width="1500" height="170" viewBox="0 0 1500 170"><svg xml:space="preserve" width="1500" height="170" data-version="2" data-id="lg_tSKv9MpWfJtyFKq9UY" viewBox="0 0 571 170" x="0" y="0"><rect width="100%" height="100%" fill="transparent"></rect><path fill="#35185a" d="M151.29 63.443v-2.64h-20.46v2.64h4.75l12.86 35.33q2.11 5.9 4.64 6.85 1.27.53 3.17.53h1.37l14.87-39.02q1.27-3.27 3.06-3.59.53-.1.95-.1 2.32 0 2.53-1.59.1-.52.1-1.05h-16.24v2.64h7.91l-13.39 35.96-13.5-35.96Z"></path><rect width="48.3" height="45.35" x="-24.15" y="-22.68" fill="none" rx="0" ry="0" transform="translate(155.48 83.98)"></rect><path fill="#35185a" d="M205.71 62.383q7.39 0 9.81 6.22.84 2.01.84 4.33 0 5.27-5.06 6.43-2.63.53-7.49.42l-11.18-.31q.53-12.13 7.91-15.82 2.43-1.27 5.17-1.27m18.35 33.12-2.63-.95q-3.69 8.01-11.92 9.07-1.06.1-2 .1-11.08 0-13.93-13.18-.84-3.69-.95-8.12l12.66.21q12.87.21 16.56-2.43 2.85-2.1 2.85-6.01 0-7.17-7.28-11.39-5.17-3.06-11.92-3.06-13.18 0-18.88 10.97-2.95 5.7-2.95 12.87 0 13.08 9.39 19.41 5.59 3.69 12.76 3.69 11.39 0 16.77-8.23.84-1.48 1.47-2.95"></path><rect width="41.03" height="46.94" x="-20.52" y="-23.47" fill="none" rx="0" ry="0" transform="translate(204.69 83.71)"></rect><path fill="#35185a" d="M252.12 102.993h-4.75v-22.79q.32-9.8 6.96-14.13 2.85-1.79 5.8-1.79 6.44 0 8.76 6.01.95 2.43.95 5.49v20.88q0 4.85-2.74 5.8-1.59.53-5.17.53v2.63h23.73q0-2.32-1.58-2.53-.43-.1-1.06-.1h-5.27v-26.16q0-10.55-7.28-15.08-3.37-2.01-7.28-2.01-7.8 0-12.86 6.23-1.9 2.42-3.06 5.38l-.42-10.55h-15.3v2.64h7.91v33.22q0 4.85-2.74 5.8-1.58.53-5.17.53v2.63h23.21q0-2.32-1.59-2.53-.42-.1-1.05-.1"></path><rect width="54.11" height="45.88" x="-27.05" y="-22.94" fill="none" rx="0" ry="0" transform="translate(259.1 83.18)"></rect><path fill="#35185a" d="M342.61 102.993h-5.27v-42.19h-16.56v2.64h8.65v22.78q0 9.49-6.65 13.92-2.95 2-6.11 2-8.65 0-10.02-8.86-.21-1.47-.21-3.16v-29.32H290.4v2.64h8.12v25.1q.11 18.03 15.09 18.14 7.91 0 12.97-6.44 1.9-2.42 3.06-5.38l.74 10.76h14.87q0-2.32-1.58-2.53-.43-.1-1.06-.1"></path><rect width="54.85" height="45.88" x="-27.43" y="-22.94" fill="none" rx="0" ry="0" transform="translate(318.32 84.24)"></rect><path fill="#35185a" d="M374.88 102.993h-7.59v-20.99q0-9.6 5.91-15.4 2.32-2.22 3.9-2.32 1.79 0 3.27 2.64 1.69 2.95 3.16 3.37.64.21 1.27.21 3.16 0 4.01-3.06.21-.63.21-1.26 0-4.75-4.85-5.8-1.06-.21-2.01-.21-6.33 0-11.28 5.37-2.32 2.54-3.69 5.7l-.43-10.44h-15.29v2.64h7.91v33.22q0 4.85-2.74 5.8-1.58.53-5.17.53v2.63h26.05q0-2.32-1.58-2.53-.42-.1-1.06-.1"></path><rect width="37.55" height="45.45" x="-18.77" y="-22.73" fill="none" rx="0" ry="0" transform="translate(370.75 83.4)"></rect><path fill="#35185a" d="M415.81 62.383q7.38 0 9.8 6.22.85 2.01.85 4.33 0 5.27-5.06 6.43-2.64.53-7.49.42l-11.18-.31q.53-12.13 7.91-15.82 2.42-1.27 5.17-1.27m18.35 33.12-2.64-.95q-3.69 8.01-11.92 9.07-1.05.1-2 .1-11.08 0-13.92-13.18-.85-3.69-.95-8.12l12.65.21q12.87.21 16.56-2.43 2.85-2.1 2.85-6.01 0-7.17-7.28-11.39-5.16-3.06-11.91-3.06-13.19 0-18.88 10.97-2.96 5.7-2.96 12.87 0 13.08 9.39 19.41 5.59 3.69 12.76 3.69 11.39 0 16.77-8.23.84-1.48 1.48-2.95"></path><rect width="41.03" height="46.94" x="-20.52" y="-23.47" fill="none" rx="0" ry="0" transform="translate(414.77 83.71)"></rect><path fill="#35185a" d="M177.19 164.893q0-.32-.23-.36-.08-.02-.15-.02h-.79v-3.26l2.21-4.36q.34-.39.79-.41.33 0 .37-.23.01-.07.01-.15h-2.6v.38h1.17l-2.23 4.27-2.33-4.27h1.12v-.38h-3.31v.38h.8l2.76 4.91v3.12h-1.18v.38Z"></path><rect width="8.18" height="8.79" x="-4.09" y="-4.39" fill="none" rx="0" ry="0" transform="translate(175.81 161)"></rect><path fill="#35185a" d="M181.24 161.773q0-2.27 1.24-2.77.32-.11.67-.11 1.63 0 1.89 2.05.05.35.05.77 0 2.47-1.35 2.89-.26.07-.54.07-1.48 0-1.86-1.75-.1-.52-.1-1.15m1.96-3.25q-1.41 0-2.35.97-.86.89-.86 2.22 0 1.85 1.35 2.77.82.56 1.81.56 1.41 0 2.33-1 .85-.9.85-2.27 0-1.84-1.36-2.74-.8-.51-1.77-.51"></path><rect width="6.34" height="6.52" x="-3.17" y="-3.26" fill="none" rx="0" ry="0" transform="translate(183.66 162.28)"></rect><path fill="#35185a" d="M194.46 164.533h-.73v-5.86h-2.3v.36h1.2v3.17q0 1.32-.92 1.93-.41.28-.85.28-1.2 0-1.39-1.23-.03-.21-.03-.44v-4.07h-2.23v.36h1.13v3.49q.01 2.5 2.09 2.52 1.1 0 1.81-.89.26-.34.42-.75l.1 1.49h2.07q0-.32-.22-.35-.06-.01-.15-.01"></path><rect width="7.62" height="6.37" x="-3.81" y="-3.19" fill="none" rx="0" ry="0" transform="translate(191.52 162.36)"></rect><path fill="#35185a" d="M198.95 164.533h-1.06v-2.92q0-1.33.82-2.14.32-.3.54-.32.25 0 .46.37.23.41.44.47.08.02.17.02.44 0 .56-.42.03-.09.03-.18 0-.65-.68-.8-.14-.03-.27-.03-.88 0-1.57.75-.32.35-.51.79l-.06-1.45h-2.13v.36h1.1v4.62q0 .67-.38.8-.22.08-.72.08v.36h3.62q0-.32-.22-.35-.06-.01-.14-.01"></path><rect width="5.22" height="6.31" x="-2.61" y="-3.15" fill="none" rx="0" ry="0" transform="translate(198.8 162.24)"></rect><path fill="#35185a" d="M208.45 156.483q1.31 0 1.69 1.18.11.38.11.82 0 1.9-1.7 2.09-.17.02-.35.02h-1.34v-4.11Zm-.13 8.41q0-.32-.23-.36-.08-.02-.15-.02h-1.08v-3.5h1.28q2.41 0 3.18-1.36.31-.51.31-1.19 0-1.45-1.26-2.03-.67-.33-1.61-.33h-4.34v.38h1.18v8.03h-1.18v.38Z"></path><rect width="7.21" height="8.79" x="-3.6" y="-4.39" fill="none" rx="0" ry="0" transform="translate(208.53 161)"></rect><path fill="#35185a" d="M215.72 158.893q1.02 0 1.36.86.12.28.12.6 0 .73-.71.9-.36.07-1.04.05l-1.55-.04q.07-1.68 1.1-2.2.34-.17.72-.17m2.55 4.6-.37-.14q-.51 1.12-1.65 1.26-.15.02-.28.02-1.54 0-1.94-1.83-.11-.51-.13-1.13l1.76.03q1.79.03 2.3-.34.39-.29.39-.83 0-1-1.01-1.58-.71-.43-1.65-.43-1.83 0-2.62 1.52-.41.8-.41 1.79 0 1.82 1.3 2.7.78.51 1.77.51 1.58 0 2.33-1.14.12-.21.21-.41"></path><rect width="5.69" height="6.52" x="-2.85" y="-3.26" fill="none" rx="0" ry="0" transform="translate(216 162.28)"></rect><path fill="#35185a" d="M222.59 164.533h-1.06v-2.92q0-1.33.82-2.14.33-.3.55-.32.24 0 .45.37.23.41.44.47.09.02.18.02.43 0 .55-.42.03-.09.03-.18 0-.65-.67-.8-.15-.03-.28-.03-.88 0-1.57.75-.32.35-.51.79l-.06-1.45h-2.12v.36h1.09v4.62q0 .67-.38.8-.22.08-.71.08v.36h3.61q0-.32-.22-.35-.05-.01-.14-.01"></path><rect width="5.21" height="6.31" x="-2.6" y="-3.15" fill="none" rx="0" ry="0" transform="translate(222.44 162.24)"></rect><path fill="#35185a" d="M228.3 164.533h-1.02v-5.5h1.68v-.36h-1.68v-.09q0-2.51.74-2.84.16-.08.35-.08.46 0 .77.55.26.47.38.55.11.09.26.09.48 0 .57-.41.02-.07.02-.13 0-.54-.74-.85-.42-.16-.95-.16-1.38 0-2.05 1.14-.45.79-.45 1.99v.24h-1.03v.36h1.03v4.62q0 .67-.38.8-.22.08-.72.08v.36h3.59q0-.32-.22-.35-.06-.01-.15-.01"></path><rect width="5.29" height="9.59" x="-2.65" y="-4.79" fill="none" rx="0" ry="0" transform="translate(228.22 160.6)"></rect><path fill="#35185a" d="M232.72 158.893q1.03 0 1.37.86.11.28.11.6 0 .73-.7.9-.37.07-1.04.05l-1.55-.04q.07-1.68 1.1-2.2.33-.17.71-.17m2.55 4.6-.36-.14q-.52 1.12-1.66 1.26-.14.02-.28.02-1.53 0-1.93-1.83-.12-.51-.13-1.13l1.76.03q1.78.03 2.3-.34.39-.29.39-.83 0-1-1.01-1.58-.72-.43-1.65-.43-1.84 0-2.63 1.52-.41.8-.41 1.79 0 1.82 1.31 2.7.77.51 1.77.51 1.58 0 2.33-1.14.12-.21.2-.41"></path><rect width="5.7" height="6.52" x="-2.85" y="-3.26" fill="none" rx="0" ry="0" transform="translate(233.01 162.28)"></rect><path fill="#35185a" d="M236.46 161.853q0 1.77 1.3 2.65.81.54 1.83.54 1.53 0 2.3-1.07.18-.25.28-.5l-.38-.13q-.54 1.16-1.78 1.27-.12.02-.24.02-1.04 0-1.63-1.04-.43-.79-.43-1.88 0-1.91 1.01-2.56.42-.26.93-.26.79 0 .96.61.02.12.07.37.09.58.32.73.15.07.32.09.5.03.63-.41.03-.1.03-.19 0-.75-.95-1.23-.67-.34-1.46-.34-1.97 0-2.74 1.6-.37.76-.37 1.73"></path><rect width="5.71" height="6.52" x="-2.85" y="-3.26" fill="none" rx="0" ry="0" transform="translate(239.81 162.28)"></rect><path fill="#35185a" d="M242.54 159.033h1.02v4.13q.11 1.84 1.69 1.89 1.35 0 1.68-1.65v-.03l-.39-.07q-.37 1.21-1.07 1.31-.79-.02-.81-1.12v-4.46h2.27v-.36h-2.27v-1.7l-1.1.31v1.39h-1.02Z"></path><rect width="4.39" height="8.08" x="-2.19" y="-4.04" fill="none" rx="0" ry="0" transform="translate(245.24 161.51)"></rect><path fill="#35185a" d="m254.57 164.973 3.01-8.49h.74v-.38h-2.47v.38h1.18l-2.45 6.92-2.65-6.92h1.17v-.38h-3.31v.38h.88l2.78 7.4q.32.87.56 1 .15.09.38.09Z"></path><rect width="8.53" height="8.87" x="-4.26" y="-4.43" fill="none" rx="0" ry="0" transform="translate(254.56 161.04)"></rect><path fill="#35185a" d="M261.96 158.893q1.03 0 1.37.86.11.28.11.6 0 .73-.7.9-.37.07-1.04.05l-1.55-.04q.07-1.68 1.1-2.2.33-.17.71-.17m2.55 4.6-.36-.14q-.52 1.12-1.66 1.26-.15.02-.28.02-1.54 0-1.93-1.83-.12-.51-.13-1.13l1.75.03q1.79.03 2.3-.34.4-.29.4-.83 0-1-1.01-1.58-.72-.43-1.66-.43-1.83 0-2.62 1.52-.41.8-.41 1.79 0 1.82 1.31 2.7.77.51 1.77.51 1.58 0 2.33-1.14.11-.21.2-.41"></path><rect width="5.7" height="6.52" x="-2.85" y="-3.26" fill="none" rx="0" ry="0" transform="translate(262.25 162.28)"></rect><path fill="#35185a" d="M268.41 164.533h-.66v-3.17q.04-1.36.97-1.96.39-.25.8-.25.9 0 1.22.84.13.33.13.76v2.9q0 .67-.38.8-.22.08-.72.08v.36h3.3q0-.32-.22-.35-.06-.01-.15-.01h-.73v-3.64q0-1.46-1.01-2.09-.47-.28-1.01-.28-1.09 0-1.79.87-.26.33-.43.74l-.05-1.46h-2.13v.36h1.1v4.62q0 .67-.38.8-.22.08-.72.08v.36h3.22q0-.32-.22-.35-.05-.01-.14-.01"></path><rect width="7.52" height="6.37" x="-3.76" y="-3.19" fill="none" rx="0" ry="0" transform="translate(269.81 162.2)"></rect><path fill="#35185a" d="M280.98 164.533h-.74v-5.86h-2.3v.36h1.21v3.17q0 1.32-.93 1.93-.41.28-.85.28-1.2 0-1.39-1.23-.03-.21-.03-.44v-4.07h-2.22v.36h1.12v3.49q.02 2.5 2.1 2.52 1.1 0 1.8-.89.26-.34.43-.75l.1 1.49h2.06q0-.32-.22-.35-.06-.01-.14-.01"></path><rect width="7.61" height="6.37" x="-3.81" y="-3.19" fill="none" rx="0" ry="0" transform="translate(278.04 162.36)"></rect><path fill="#35185a" d="M285.39 158.893q1.02 0 1.36.86.12.28.12.6 0 .73-.71.9-.36.07-1.04.05l-1.55-.04q.07-1.68 1.1-2.2.34-.17.72-.17m2.54 4.6-.36-.14q-.51 1.12-1.66 1.26-.14.02-.28.02-1.53 0-1.93-1.83-.12-.51-.13-1.13l1.76.03q1.78.03 2.3-.34.39-.29.39-.83 0-1-1.01-1.58-.72-.43-1.65-.43-1.83 0-2.63 1.52-.41.8-.41 1.79 0 1.82 1.31 2.7.77.51 1.77.51 1.58 0 2.33-1.14.12-.21.2-.41"></path><rect width="5.7" height="6.52" x="-2.85" y="-3.26" fill="none" rx="0" ry="0" transform="translate(285.67 162.28)"></rect><path fill="#35185a" d="M290.78 164.353q0-.79-.59-.94-.12-.03-.22-.03-.47 0-.64.44-.06.15-.06.3 0 .47.47.64l.11.03q.33.09.34.25-.01.39-.64 1.05l.3.22q.9-.96.93-1.96"></path><rect width="1.51" height="2.93" x="-.76" y="-1.47" fill="none" rx="0" ry="0" transform="translate(290.52 165.35)"></rect><path fill="#35185a" d="M299.05 156.483v-.38h-3.75v.38h1.32v6.04q0 1.8-.45 2.15-.18.12-.4.12-.39 0-.53-.45-.16-.52-.22-.6-.17-.24-.52-.24-.46 0-.6.43-.05.11-.05.22 0 .58.76.86.41.15.91.15 1.26 0 1.91-1 .45-.72.45-1.79v-5.89Z"></path><rect width="5.2" height="9.06" x="-2.6" y="-4.53" fill="none" rx="0" ry="0" transform="translate(296.95 161.13)"></rect><path fill="#35185a" d="M307.11 164.533h-.73v-5.86h-2.3v.36h1.2v3.17q0 1.32-.92 1.93-.41.28-.85.28-1.21 0-1.4-1.23-.02-.21-.02-.44v-4.07h-2.23v.36h1.13v3.49q.01 2.5 2.09 2.52 1.1 0 1.8-.89.27-.34.43-.75l.1 1.49h2.07q0-.32-.22-.35-.06-.01-.15-.01"></path><rect width="7.62" height="6.37" x="-3.81" y="-3.19" fill="none" rx="0" ry="0" transform="translate(304.17 162.36)"></rect><path fill="#35185a" d="M310.65 164.643q1.02 0 1.37-.61.13-.22.13-.48 0-.62-.89-1.06-.2-.1-.63-.29-1.21-.5-1.6-.94-.43-.48-.43-1.13 0-1.01 1.12-1.42.51-.19 1.11-.19.97 0 1.67.41 0-.42.21-.48.08-.02.19-.02v1.83h-.39q-.02-1.34-1.49-1.36-1.1 0-1.36.65-.07.17-.07.36 0 .63.9 1.07.21.1.65.28 1.18.48 1.58.92.42.47.42 1.12 0 1.18-1.26 1.58-.48.16-1.05.16-1.05-.02-1.83-.53 0 .38-.19.44-.09.02-.21.02v-2.23h.41q.03 1.89 1.64 1.9"></path><rect width="4.54" height="6.61" x="-2.27" y="-3.31" fill="none" rx="0" ry="0" transform="translate(311.37 162.24)"></rect><path fill="#35185a" d="M314.02 159.033h1.03v4.13q.1 1.84 1.68 1.89 1.35 0 1.69-1.65v-.03l-.4-.07q-.36 1.21-1.07 1.31-.79-.02-.8-1.12v-4.46h2.27v-.36h-2.27v-1.7l-1.1.31v1.39h-1.03Z"></path><rect width="4.4" height="8.08" x="-2.2" y="-4.04" fill="none" rx="0" ry="0" transform="translate(316.72 161.51)"></rect><path fill="#35185a" d="M327.08 165.043q1.12 0 1.24-1.36.02-.09.02-.16l-.39-.02q-.1 1.07-.57 1.09-.38-.03-.39-.77v-3.09q0-2.09-2.1-2.21h-.26q-1.64 0-2.2.76-.17.25-.17.5 0 .45.42.53.07.01.15.01.33 0 .5-.42.2-.54.27-.65.28-.36.87-.36 1.37.08 1.42 1.51v.92q-3.44 0-3.94 1.43-.09.28-.09.6 0 1.12.98 1.53.4.16.84.16 1.07 0 1.8-.73.26-.28.39-.59.18 1.3 1.21 1.32m-2.92-.59q-.89 0-1.1-.89-.04-.21-.04-.45 0-.99 1.13-1.25.6-.13 1.74-.15v1.18q-.22 1.01-1.07 1.42-.34.14-.66.14"></path><rect width="6.48" height="6.52" x="-3.24" y="-3.26" fill="none" rx="0" ry="0" transform="translate(325.6 162.28)"></rect><path fill="#35185a" d="M339.29 164.223q0 .61.18.7.1.05.28.05v-2.77h-.36q-.74 2.41-2.98 2.43-1.91 0-2.6-1.92-.33-.94-.33-2.21 0-2.74 1.51-3.72.65-.41 1.46-.41 1.83 0 2.65 1.73.15.3.25.63h.35l-.04-2.7q-.32 0-.4.21-.04.17-.04.57-.43-.43-1.45-.69-.68-.16-1.38-.16-2.31 0-3.54 1.71-.85 1.22-.85 2.8 0 1.92 1.18 3.22 1.26 1.35 3.29 1.35 1.47-.02 2.82-.82"></path><rect width="7.75" height="9.08" x="-3.88" y="-4.54" fill="none" rx="0" ry="0" transform="translate(336.38 161)"></rect><path fill="#35185a" d="M343.88 164.533h-.79v-9.16h-2.2v.37h1.1v7.91q0 .67-.38.8-.22.08-.72.08v.36h3.35q0-.32-.22-.35-.05-.01-.14-.01"></path><rect width="3.35" height="9.52" x="-1.68" y="-4.76" fill="none" rx="0" ry="0" transform="translate(343.06 160.63)"></rect><path fill="#35185a" d="M348.08 164.533h-.73v-5.86h-2.27v.36h1.17v4.62q0 .67-.45.82-.22.06-.72.06v.36h3.37q0-.32-.22-.35-.08-.01-.15-.01m-.56-8q0-.51-.45-.73-.18-.08-.34-.08-.51 0-.73.47-.07.16-.07.34 0 .54.48.75.16.05.32.05.52 0 .72-.46.07-.17.07-.34"></path><rect width="3.37" height="9.17" x="-1.69" y="-4.58" fill="none" rx="0" ry="0" transform="translate(347.26 160.8)"></rect><path fill="#35185a" d="M349.47 161.853q0 1.77 1.31 2.65.8.54 1.83.54 1.52 0 2.3-1.07.17-.25.28-.5l-.39-.13q-.54 1.16-1.78 1.27-.12.02-.24.02-1.04 0-1.62-1.04-.44-.79-.44-1.88 0-1.91 1.01-2.56.42-.26.94-.26.79 0 .95.61.03.12.07.37.09.58.32.73.15.07.33.09.49.03.63-.41.03-.1.03-.19 0-.75-.96-1.23-.67-.34-1.46-.34-1.96 0-2.74 1.6-.37.76-.37 1.73"></path><rect width="5.72" height="6.52" x="-2.86" y="-3.26" fill="none" rx="0" ry="0" transform="translate(352.83 162.28)"></rect><path fill="#35185a" d="M358.57 164.533h-.66v-2.17l.81-.75 2.06 3.28h1.95q0-.32-.22-.35-.06-.01-.15-.01h-.52l-2.36-3.64 1.37-1.29q.52-.48.78-.54.12-.03.26-.03.33 0 .36-.22.01-.07.01-.14h-2.49v.36h1.1l-2.96 2.74v-6.4h-2.2v.37h1.1v7.91q0 .67-.38.8-.22.08-.72.08v.36h3.23q0-.32-.22-.35-.06-.01-.15-.01"></path><rect width="7.02" height="9.52" x="-3.51" y="-4.76" fill="none" rx="0" ry="0" transform="translate(359.72 160.63)"></rect><path fill="#35185a" d="M374.42 164.893q0-.32-.24-.36-.07-.02-.14-.02h-.5l-3.35-8.41h-.55l-3.28 8.41h-.92v.38h2.61q0-.32-.24-.36-.07-.02-.14-.02h-.72l1.1-2.84h3.06l1.1 2.84h-.95v.38Zm-3.47-3.64h-2.74l1.36-3.55Z"></path><rect width="8.98" height="8.79" x="-4.49" y="-4.39" fill="none" rx="0" ry="0" transform="translate(370.43 161)"></rect><path fill="#35185a" d="M377.41 159.033v-.36h-2.9v.36h.66l1.83 4.91q.3.84.63.97.16.06.39.06h.3l1.27-3.84.98 2.81q.28.82.57.97.15.06.4.06h.23l1.78-5.41q.14-.45.35-.51.07-.02.16-.02.32 0 .36-.2.02-.07.02-.16h-2.17v.36h1.03l-1.63 5.06-1.71-5.06h1.02v-.36h-2.25l.65 1.86-1.21 3.6-1.86-5.1Z"></path><rect width="9.93" height="6.3" x="-4.96" y="-3.15" fill="none" rx="0" ry="0" transform="translate(379.98 162.32)"></rect><path fill="#35185a" d="M390.17 165.043q1.12 0 1.24-1.36.02-.09.02-.16l-.38-.02q-.11 1.07-.58 1.09-.38-.03-.39-.77v-3.09q0-2.09-2.1-2.21h-.26q-1.64 0-2.2.76-.17.25-.17.5 0 .45.42.53.07.01.15.01.34 0 .5-.42.2-.54.27-.65.28-.36.87-.36 1.38.08 1.42 1.51v.92q-3.44 0-3.94 1.43-.09.28-.09.6 0 1.12.98 1.53.4.16.84.16 1.07 0 1.8-.73.26-.28.4-.59.17 1.3 1.2 1.32m-2.92-.59q-.89 0-1.1-.89-.04-.21-.04-.45 0-.99 1.13-1.25.6-.13 1.74-.15v1.18q-.22 1.01-1.07 1.42-.34.14-.66.14"></path><rect width="6.48" height="6.52" x="-3.24" y="-3.26" fill="none" rx="0" ry="0" transform="translate(388.69 162.28)"></rect><path fill="#35185a" d="M393.01 167.223q-.24 0-.35-.35-.16-.44-.31-.54-.13-.09-.31-.09-.47 0-.54.41-.02.06-.02.1 0 .56.65.81.29.12.61.12 1.16 0 2.01-1.42.35-.58.68-1.37l2.16-5.34q.15-.41.33-.47.1-.03.23-.03.29 0 .34-.16.03-.09.03-.22h-2.23v.38h1.07l-1.88 4.69-2-4.69h.98v-.38h-2.86v.38h.72l2.64 5.84q-.82 1.94-1.54 2.24-.21.09-.41.09"></path><rect width="7.04" height="9.01" x="-3.52" y="-4.5" fill="none" rx="0" ry="0" transform="translate(395.5 163.68)"></rect><path fill="#35185a" d="M5.51 1.32v165.029h135.497v-4.71H10.22V6.03h550.561v155.609H429.994v4.71h135.497V1.32z"></path></svg></svg>